<?xml version="1.0" encoding="UTF-8"?>
<!-- Verbose source SVG kept intentionally roomy so production optimization is easy to see. -->
<svg xmlns="http://www.w3.org/2000/svg" viewBox="0 0 640 900" role="img" aria-labelledby="title desc">
  <title id="title">Signal Atlas Poster</title>
  <desc id="desc">Abstract poster made from layered waves and grid lines.</desc>
  <metadata>
    chapter=07
    asset=signal-atlas
    kind=poster
    note=This metadata and whitespace should shrink in the production build.
  </metadata>
  <defs>
    <linearGradient id="atlas-background" x1="0%" x2="100%" y1="0%" y2="100%">
      <stop offset="0%" stop-color="#18324A" />
      <stop offset="55%" stop-color="#275D74" />
      <stop offset="100%" stop-color="#D9824E" />
    </linearGradient>
    <linearGradient id="atlas-accent" x1="0%" x2="100%" y1="0%" y2="0%">
      <stop offset="0%" stop-color="#FFF1C9" stop-opacity="0.95" />
      <stop offset="100%" stop-color="#FFF1C9" stop-opacity="0.05" />
    </linearGradient>
    <filter id="atlas-blur">
      <feGaussianBlur stdDeviation="12" />
    </filter>
  </defs>

  <rect width="640" height="900" fill="url(#atlas-background)" />

  <g opacity="0.18">
    <path d="M0 130H640" stroke="#F5EBD8" stroke-width="1.2" />
    <path d="M0 250H640" stroke="#F5EBD8" stroke-width="1.2" />
    <path d="M0 370H640" stroke="#F5EBD8" stroke-width="1.2" />
    <path d="M0 490H640" stroke="#F5EBD8" stroke-width="1.2" />
    <path d="M0 610H640" stroke="#F5EBD8" stroke-width="1.2" />
    <path d="M0 730H640" stroke="#F5EBD8" stroke-width="1.2" />
  </g>

  <g fill="none" stroke="url(#atlas-accent)" stroke-linecap="round">
    <path d="M-20 210C84 110 180 320 320 246S535 140 660 226" stroke-width="18" />
    <path d="M-30 322C120 420 200 220 328 308S520 410 680 300" stroke-width="10" />
    <path d="M-10 470C110 360 225 590 360 492S530 392 670 470" stroke-width="16" />
    <path d="M-10 620C90 722 220 518 330 634S510 744 650 624" stroke-width="8" />
  </g>

  <circle cx="458" cy="220" r="92" fill="#FFF1C9" opacity="0.22" filter="url(#atlas-blur)" />
  <circle cx="172" cy="650" r="126" fill="#F6C49B" opacity="0.16" filter="url(#atlas-blur)" />

  <g fill="#FFF5E4">
    <text x="48" y="112" font-family="Georgia, serif" font-size="34" letter-spacing="5">SIGNAL ATLAS</text>
    <text x="48" y="152" font-family="Avenir Next, sans-serif" font-size="16" letter-spacing="6">MEDIA CATALOG INSPECTOR</text>
    <text x="48" y="842" font-family="Avenir Next, sans-serif" font-size="14" letter-spacing="4">CHAPTER 07 / VERBOSE SVG POSTER</text>
  </g>
</svg>